<svg width="22" height="24" viewBox="0 0 22 24" fill="none" xmlns="http://www.w3.org/2000/svg">
<path d="M9.83333 14.8571V17.1429C7.97682 17.1429 6.19634 17.8653 4.88359 19.1513C3.57083 20.4372 2.83333 22.1814 2.83333 24H0.5C0.5 21.5752 1.48333 19.2496 3.23367 17.535C4.98401 15.8204 7.35798 14.8571 9.83333 14.8571ZM9.83333 13.7143C5.96583 13.7143 2.83333 10.6457 2.83333 6.85714C2.83333 3.06857 5.96583 0 9.83333 0C13.7008 0 16.8333 3.06857 16.8333 6.85714C16.8333 10.6457 13.7008 13.7143 9.83333 13.7143ZM9.83333 11.4286C12.4117 11.4286 14.5 9.38286 14.5 6.85714C14.5 4.33143 12.4117 2.28571 9.83333 2.28571C7.255 2.28571 5.16667 4.33143 5.16667 6.85714C5.16667 9.38286 7.255 11.4286 9.83333 11.4286ZM20.3333 18.2857H21.5V24H12.1667V18.2857H13.3333V17.1429C13.3333 16.2335 13.7021 15.3615 14.3585 14.7185C15.0148 14.0755 15.9051 13.7143 16.8333 13.7143C17.7616 13.7143 18.6518 14.0755 19.3082 14.7185C19.9646 15.3615 20.3333 16.2335 20.3333 17.1429V18.2857ZM18 18.2857V17.1429C18 16.8398 17.8771 16.5491 17.6583 16.3347C17.4395 16.1204 17.1428 16 16.8333 16C16.5239 16 16.2272 16.1204 16.0084 16.3347C15.7896 16.5491 15.6667 16.8398 15.6667 17.1429V18.2857H18Z" fill="white"/>
</svg>
